name 900006_30.mot
datacolumns 153
datarows 4
range 0.43333334 0.45833334
endheader

                time	           pelvis_tx	           pelvis_ty	           pelvis_tz	         pelvis_tilt	         pelvis_list	     pelvis_rotation	       hip_flexion_r	     hip_adduction_r	      hip_rotation_r	        knee_angle_r	       ankle_angle_r	    subtalar_angle_r	         mtp_angle_r	       hip_flexion_l	     hip_adduction_l	      hip_rotation_l	        knee_angle_l	       ankle_angle_l	    subtalar_angle_l	         mtp_angle_l	    lumbar_extension	      lumbar_bending	     lumbar_rotation	     ground_force_vx	     ground_force_vy	     ground_force_vz	     ground_force_px	     ground_force_py	     ground_force_pz	     ground_force_vx	     ground_force_vy	     ground_force_vz	     ground_force_px	     ground_force_py	     ground_force_pz	     ground_torque_x	     ground_torque_y	     ground_torque_z	     ground_torque_x	     ground_torque_y	     ground_torque_z	    ground_marker_px	    ground_marker_py	    ground_marker_pz	    ground_marker_px	    ground_marker_py	    ground_marker_pz	    ground_marker_px	    ground_marker_py	    ground_marker_pz	    ground_marker_px	    ground_marker_py	    ground_marker_pz	    ground_marker_px	    ground_marker_py	    ground_marker_pz	    ground_marker_px	    ground_marker_py	    ground_marker_pz	    ground_marker_px	    ground_marker_py	    ground_marker_pz	    ground_marker_px	    ground_marker_py	    ground_marker_pz	    ground_marker_px	    ground_marker_py	    ground_marker_pz	    ground_marker_px	    ground_marker_py	    ground_marker_pz	    ground_marker_px	    ground_marker_py	    ground_marker_pz	    ground_marker_px	    ground_marker_py	    ground_marker_pz	    ground_marker_px	    ground_marker_py	    ground_marker_pz	    ground_marker_px	    ground_marker_py	    ground_marker_pz	    ground_marker_px	    ground_marker_py	    ground_marker_pz	    ground_marker_px	    ground_marker_py	    ground_marker_pz	    ground_marker_px	    ground_marker_py	    ground_marker_pz	    ground_marker_px	    ground_marker_py	    ground_marker_pz	    ground_marker_px	    ground_marker_py	    ground_marker_pz	    ground_marker_px	    ground_marker_py	    ground_marker_pz	    ground_marker_px	    ground_marker_py	    ground_marker_pz	    ground_marker_px	    ground_marker_py	    ground_marker_pz	    ground_marker_px	    ground_marker_py	    ground_marker_pz	    ground_marker_px	    ground_marker_py	    ground_marker_pz	    ground_marker_px	    ground_marker_py	    ground_marker_pz	    ground_marker_px	    ground_marker_py	    ground_marker_pz	    ground_marker_px	    ground_marker_py	    ground_marker_pz	    ground_marker_px	    ground_marker_py	    ground_marker_pz	    ground_marker_px	    ground_marker_py	    ground_marker_pz	    ground_marker_px	    ground_marker_py	    ground_marker_pz	    ground_marker_px	    ground_marker_py	    ground_marker_pz	    ground_marker_px	    ground_marker_py	    ground_marker_pz	    ground_marker_px	    ground_marker_py	    ground_marker_pz	    ground_marker_px	    ground_marker_py	    ground_marker_pz	    ground_marker_px	    ground_marker_py	    ground_marker_pz	    ground_marker_px	    ground_marker_py	    ground_marker_pz	    ground_marker_px	    ground_marker_py	    ground_marker_pz	
          0.43333334	          0.36271554	          0.81525612	         -0.20334449	          1.60242653	          0.87086397	         -6.46483994	        -15.61175346	         -0.26046246	         -9.00569534	         -8.99349785	         13.55839920	          0.00000000	          0.00000000	         27.35631180	         -3.47755694	         -9.58965111	         -4.88678598	          4.07947302	          0.00000000	          0.00000000	         -8.92529202	          3.28189373	          2.85589409	         69.32238251	        548.61141114	        -30.89356771	          0.17462332	          0.00000000	         -0.14954308	          0.00000000	          0.00000000	          0.00000000	          0.66566309	          0.00000000	         -0.25991925	          0.00000000	          0.60904736	          0.00000000	          0.00000000	          0.00000000	          0.00000000	          0.32697666	          0.74352908	         -0.21517390	          0.31254116	          0.74096829	         -0.15964924	          0.34141219	          0.74608988	         -0.27069858	          0.16678581	          0.42751840	         -0.15200938	          0.44918612	          0.39793566	         -0.27843848	          0.06071649	          0.07672682	         -0.17519736	          0.62008685	          0.08930770	         -0.28850260	          0.36271554	          0.81525612	         -0.20334449	          0.35020015	          0.81585902	         -0.09376168	          0.37523097	          0.81465316	         -0.31292731	          0.18465236	          0.84990042	         -0.19672374	          0.19066793	          0.84552050	         -0.25310954	          0.18381788	          0.41326565	         -0.09336557	          0.47155786	          0.41167396	         -0.33716890	          0.20071270	          0.41597587	         -0.21581835	          0.46717647	          0.40230817	         -0.20964760	          0.04901744	          0.07864244	         -0.13962050	          0.60801607	          0.08466489	         -0.32263455	          0.06586473	          0.07420027	         -0.20853838	          0.62154812	          0.09399498	         -0.25554281	          0.26299047	          1.24073529	         -0.20154364	          0.36510906	          1.15852392	         -0.15140995	          0.37257299	          1.16455829	         -0.25623089	          0.36621895	          1.16168189	         -0.20708984	          0.36692029	          1.05983746	         -0.21542928	          0.34579334	          0.51468903	         -0.09190352	          0.50260997	          0.58061737	         -0.34786612	          0.29846674	          0.56872517	         -0.06986396	          0.46212909	          0.61135983	         -0.28523365	          0.27172086	          0.51677001	         -0.07871620	          0.47907630	          0.55653495	         -0.27478638	          0.20743255	          0.14888683	         -0.12340658	          0.54618663	          0.17863338	         -0.40896428	          0.13461360	          0.16135103	         -0.15270567	          0.56484395	          0.17609036	         -0.33194208	          0.13310143	          0.04855853	         -0.15219198	          0.70697665	          0.11296237	         -0.29773095	
          0.44166666	          0.37520501	          0.81366593	         -0.20301762	          1.67901516	          0.76027280	         -6.60798979	        -16.12860870	         -0.32426375	         -9.03193474	        -10.00226307	         13.73862934	          0.00000000	          0.00000000	         27.44649506	         -3.58148742	         -9.70682907	         -4.97490692	          4.35478592	          0.00000000	          0.00000000	         -9.01967716	          3.36316752	          2.92126465	         76.64823933	        551.75101399	        -31.23285579	          0.17662810	          0.00000000	         -0.14943692	          0.00000000	          0.00000000	          0.00000000	          0.66955139	          0.00000000	         -0.26050818	          0.00000000	          0.30918579	          0.00000000	          0.00000000	          0.00000000	          0.00000000	          0.33956623	          0.74183285	         -0.21470439	          0.32502019	          0.73939437	         -0.15920307	          0.35411227	          0.74427134	         -0.27020574	          0.17600630	          0.42739680	         -0.15099849	          0.46299845	          0.39753357	         -0.27759534	          0.06198160	          0.07906502	         -0.17403026	          0.63422263	          0.08827776	         -0.28718355	          0.37520501	          0.81366593	         -0.20301762	          0.36245561	          0.81450975	         -0.09344748	          0.38795441	          0.81282210	         -0.31258777	          0.19713917	          0.84805977	         -0.19728133	          0.20317575	          0.84363317	         -0.25365293	          0.19363104	          0.41251838	         -0.09245092	          0.48508218	          0.41057310	         -0.33626473	          0.21017911	          0.41473874	         -0.21486831	          0.48234838	          0.40105426	         -0.21026091	          0.05066859	          0.08114834	         -0.13833816	          0.62218845	          0.08358612	         -0.32132179	          0.06682657	          0.07615592	         -0.20737226	          0.63553882	          0.09298371	         -0.25420046	          0.27444831	          1.23898649	         -0.20243217	          0.37619311	          1.15700936	         -0.15191075	          0.38382146	          1.16301012	         -0.25730810	          0.37738904	          1.16014850	         -0.20788199	          0.37809387	          1.05829883	         -0.21615614	          0.35650787	          0.51287019	         -0.09082631	          0.51577550	          0.57923192	         -0.34728682	          0.30940071	          0.56728142	         -0.06953780	          0.47544593	          0.61043316	         -0.28430372	          0.28183717	          0.51546484	         -0.07816862	          0.49269521	          0.55595064	         -0.27446917	          0.21103032	          0.14748114	         -0.12337134	          0.56028849	          0.17738439	         -0.40783387	          0.13803414	          0.16171129	         -0.15224366	          0.57882082	          0.17478810	         -0.33083332	          0.13385962	          0.04928251	         -0.15154606	          0.72113740	          0.11251904	         -0.29722983	
          0.44999999	          0.38786352	          0.81227952	         -0.20272349	          1.75707722	          0.69258475	         -6.72867537	        -16.59575081	         -0.43354711	         -9.00773907	        -11.09048367	         13.76659870	          0.00000000	          0.00000000	         27.50703812	         -3.63126421	         -9.64532757	         -5.28664112	          4.64648438	          0.00000000	          0.00000000	         -9.01303673	          3.64058995	          3.03811383	         83.68664161	        549.77477808	        -31.12481642	          0.17860458	          0.00000000	         -0.14932797	          0.00000000	          0.00000000	          0.00000000	          0.67397668	          0.00000000	         -0.26110986	          0.00000000	          0.03762976	          0.00000000	          0.00000000	          0.00000000	          0.00000000	          0.35233605	          0.74036664	         -0.21429762	          0.33768570	          0.73800433	         -0.15882042	          0.36698636	          0.74272895	         -0.26977482	          0.18592991	          0.42645851	         -0.15007317	          0.47668603	          0.39750499	         -0.27683002	          0.06351990	          0.08178110	         -0.17276679	          0.64695960	          0.08674356	         -0.28541434	          0.38786352	          0.81227952	         -0.20272349	          0.37490928	          0.81327474	         -0.09318135	          0.40081778	          0.81128430	         -0.31226563	          0.20982157	          0.84639537	         -0.19785261	          0.21592686	          0.84197789	         -0.25419563	          0.20394365	          0.41177791	         -0.09155060	          0.49879619	          0.40961680	         -0.33543009	          0.21980856	          0.41243276	         -0.21226133	          0.49706501	          0.39990705	         -0.21097380	          0.05261075	          0.08402858	         -0.13695911	          0.63493192	          0.08199721	         -0.31954727	          0.06647123	          0.07770929	         -0.20602775	          0.64778340	          0.09129582	         -0.25230679	          0.28549504	          1.23757958	         -0.20311619	          0.38773444	          1.15538156	         -0.15279278	          0.39538166	          1.16175246	         -0.25799868	          0.38894087	          1.15871167	         -0.20866890	          0.38986370	          1.05689287	         -0.21729457	          0.36770651	          0.51121163	         -0.08992405	          0.52921224	          0.57834095	         -0.34650511	          0.32070923	          0.56616437	         -0.06925306	          0.48906249	          0.60975796	         -0.28315714	          0.29260987	          0.51434070	         -0.07712930	          0.50645053	          0.55549711	         -0.27396688	          0.21487759	          0.14621150	         -0.12330604	          0.57336056	          0.17571059	         -0.40635607	          0.13848113	          0.16134503	         -0.15191975	          0.59144121	          0.17277586	         -0.32935661	          0.13482204	          0.05012042	         -0.15086131	          0.73390263	          0.11117568	         -0.29609475	
          0.45833334	          0.40071034	          0.81109166	         -0.20249748	          1.83413219	          0.67370695	         -6.82132149	        -17.00519180	         -0.59622997	         -8.93986893	        -12.26439190	         13.63137531	          0.00000000	          0.00000000	         27.53020096	         -3.60748363	         -9.41025925	         -5.77185106	          4.86410666	          0.00000000	          0.00000000	         -8.94191456	          3.58883238	          3.24325705	         90.07291231	        542.19611897	        -30.46073049	          0.18065016	          0.00000000	         -0.14923239	          0.00000000	          0.00000000	          0.00000000	          0.67816180	          0.00000000	         -0.26151663	          0.00000000	         -0.17752039	          0.00000000	          0.00000000	          0.00000000	          0.00000000	          0.36528909	          0.73913956	         -0.21398875	          0.35053870	          0.73680013	         -0.15853710	          0.38003951	          0.74147904	         -0.26944038	          0.19699702	          0.42496604	         -0.14918797	          0.49106464	          0.39666161	         -0.27611414	          0.06539913	          0.08488701	         -0.17143255	          0.65841335	          0.08481058	         -0.28327307	          0.40071034	          0.81109166	         -0.20249748	          0.38758820	          0.81213641	         -0.09298734	          0.41383249	          0.81004697	         -0.31200764	          0.22270411	          0.84492904	         -0.19842209	          0.22893196	          0.84055054	         -0.25470752	          0.21480051	          0.41103360	         -0.09067634	          0.51263016	          0.40878510	         -0.33463669	          0.23037176	          0.40984964	         -0.20930296	          0.51094997	          0.39985469	         -0.20911172	          0.05489836	          0.08729874	         -0.13551366	          0.64638048	          0.08001474	         -0.31739724	          0.06830152	          0.08129326	         -0.20477529	          0.65904415	          0.08906334	         -0.25008079	          0.29673928	          1.23644125	         -0.20436427	          0.39965364	          1.15426540	         -0.15370402	          0.40706411	          1.16052890	         -0.25900397	          0.40073431	          1.15753078	         -0.20962171	          0.40190807	          1.05570400	         -0.21812251	          0.37942997	          0.50974262	         -0.08922303	          0.54288888	          0.57790446	         -0.34552479	          0.33250713	          0.56530589	         -0.06890730	          0.50260741	          0.60932267	         -0.28249305	          0.30414850	          0.51325649	         -0.07596371	          0.52013284	          0.55507123	         -0.27293891	          0.21900141	          0.14507183	         -0.12318953	          0.58552891	          0.17372257	         -0.40458083	          0.14367601	          0.16230913	         -0.15061654	          0.60330349	          0.17074011	         -0.32720667	          0.13601147	          0.05107840	         -0.15013786	          0.74536783	          0.10894334	         -0.29422054	
